<?xml version="1.0" encoding="utf-8"?>
<!-- Generator: Adobe Illustrator 27.8.1, SVG Export Plug-In . SVG Version: 6.00 Build 0)  -->
<svg version="1.1" id="Слой_1" xmlns="http://www.w3.org/2000/svg" xmlns:xlink="http://www.w3.org/1999/xlink" x="0px" y="0px"
	 viewBox="0 0 196.97 352.44" style="enable-background:new 0 0 196.97 352.44;" xml:space="preserve">
<style type="text/css">
	.st0{clip-path:url(#SVGID_00000109720456065293088920000009599851141883343242_);fill:#F5E3C3;}
	
		.st1{clip-path:url(#SVGID_00000072272616192139699610000005624584055588854444_);fill:url(#SVGID_00000047761484645772303280000006729624676556646579_);}
	.st2{clip-path:url(#SVGID_00000046298733506448967220000006569239838055941296_);}
	.st3{clip-path:url(#SVGID_00000046298733506448967220000006569239838055941296_);fill:#F6A316;}
</style>
<g>
	<defs>
		<rect id="SVGID_1_" width="196.97" height="352.44"/>
	</defs>
	<clipPath id="SVGID_00000004512066061304615810000003440807674792003775_">
		<use xlink:href="#SVGID_1_"  style="overflow:visible;"/>
	</clipPath>
	<path style="clip-path:url(#SVGID_00000004512066061304615810000003440807674792003775_);fill:#F5E3C3;" d="M165.3,78.06
		c0.54-0.29,1.03-0.54,1.22-0.64c0.74-0.37,1.39-0.69,1.73-0.88c1.07-0.59,1.38-0.74,1.51-1.17c0.11-0.35-0.08-0.72-0.48-0.9
		c-0.67-0.31-2.78,0.92-2.78,0.87c-0.05-0.4-0.28-0.71-0.79-0.72c-0.61-0.01-1.38,0.23-2.49,0.6c-1.02,0.35-2.04,0.67-2.27,0.73
		c0.57-0.68,0.74-0.94,0.74-0.94s0.54-0.62,0.26-1.01c-0.08-0.11-0.27-0.17-0.5-0.09c-0.49,0.17-1.37,0.94-2.87,2.33
		c-0.19,0.17-0.27,0.32-0.56,0.51c-0.57,0.15-1.61,0.24-2.16,0.09c-0.44-0.12-0.73-0.29-0.92-0.44c0.03-0.03,0.62-1.35,1.53-2.01
		c0.58-0.42,2.18-1.8,2.33-1.94c0.55-0.58,0.47-1.03,0.42-1.34c-0.05-0.37-0.26-0.7-0.54-0.9c-0.97-0.67-2.64,0.65-2.83,0.8
		c-0.38,0.31-2.13,1.8-2.68,2.27c-0.4,0.34-1.53,0.83-2.29,1.14l-0.44,0.19c-0.94,0.41-2.13,1.02-3,1.77
		c-0.6,0.51-1.32,1.83-1.54,2.33c-0.49,0.41-2.8,2.3-5.59,3.98c-2.11,1.27-4.36,2.66-6.3,3.86c-1.45,0.9-2.73,1.69-3.64,2.24
		c-0.17,0.09-4.27,2.26-7.66,4.96c-1.03,0.82-2.03,1.64-2.99,2.43c-0.8,0.65-1.54,1.26-2.26,1.83c-2,1.64-6.52,4.53-7.02,4.89
		c-0.67,0.42-1.36,0.85-2.16,1.33c-2.14,1.3-6.65,3.65-7.9,4.26c-0.49,0.24-1.37,0.74-2.35,1.35c-0.03,0.02-0.07,0.04-0.1,0.06
		l-0.02,0.01c-0.26-0.27-0.51-0.65-0.54-0.88c-0.19-1.2,1.48-1.34,3.25-1.79c1.18-0.3,2.15-0.88,2.14-1.61
		c-0.01-0.68-0.4-0.57-0.53-1.06c-0.29-1.15,1.2-1.25,1.4-1.78c0.07-0.18,0.04-0.56-0.43-0.72c-0.47-0.16-0.7-0.13-1.35,0.06
		c-0.34,0.1-0.6-0.53-0.19-0.97c0.41-0.44,0.59-0.58,0.46-1.05c-0.18-0.66-0.59-0.76-0.84-0.61s-0.46,0.59-0.96,0.53
		s-0.72-0.37-1.98-0.37c-0.74,0-1.34,0.65-2.07,0.03c-0.44-0.37-1.02-1.56-2.35-1.94c-1.01-0.29-1.5-0.84-1.5-0.84
		s1.24-0.39,1.63-0.78c0.72-0.73,0.67-0.92,0.79-1.43c0.05-0.21,0.25-1.82-0.63-1.7c-0.23,0.03-1,0.78-1.5,0.81
		c-0.5,0.03-0.58-0.13-0.5-0.41c0.17-0.6-0.01-0.95-0.43-1.25c-0.58-0.42-2.15-0.04-3.5,0.1c-1.33,0.14-2.36,0.01-3.61,0.8
		c-1.07,0.69-2.03,2.03-2.03,2.03s-0.95,0.07-1.55,0.93c-0.3,0.44-0.3,0.81-0.3,0.81s-0.89,0.03-1.31,0.8
		c-0.23,0.42-0.22,0.48-0.22,0.48s-1.71,0.47-2.3,1.52c-0.64,1.15-1.09,2.27-0.52,3.4c0.47,0.93,0.71,1.07,0.71,1.07
		s-0.39,0.91-0.16,1.84c0.26,1.05,0.72,1.39,0.79,1.48c-0.07,0.24-0.48,1.56,0.02,3.09c0.78,2.36,1.97,2.36,1.97,2.36
		s0.18,2.83,0.31,4.55c0.13,1.71,0.16,2.92,0.16,2.92c-0.02-0.01-3.08,1.55-3.08,1.55s-0.4-0.9-0.71-1.39
		c-1.17-1.88-2.8-3.46-3.48-4.41c-0.69-0.94-1.6-2.07-2.18-2.51c-0.13-0.14-0.36-0.35-0.77-0.62c-0.99-0.66-1.64-2.12-1.64-2.12
		l6.71-0.38l1-2.89l-1.17-0.97l-5.99-1.92c1.03-6.79,11.09-71.21,11.09-71.21l-1.02-2.94l-0.01,0.02l-0.03,0.02l0,0.01l-2.11,2.81
		l-13.39,71.25L56,106.9l0.17,2.9l1.01,0.74l0.03,0.03l2.64,0.09c-0.24,0.13-0.58,0.37-0.62,0.79c-0.04,0.42-0.08,1.21,0.22,1.43
		c0.29,0.21,0.41,0.2,0.41,0.2s-0.38,0.56-0.16,1.15s0.51,0.81,0.51,0.81s-0.33,0.37-0.13,0.97c0.2,0.61,0.46,0.76,0.46,0.76
		s-0.3,0.89,0.06,1.34c0.37,0.46,1.05,0.66,1.05,0.66l-0.16,1.64l-0.87,0.18l-0.2,2.36l1.06,0.44l4.16,0.32l0.22-2.48
		c0,0-0.38-0.26-0.45-0.39c-0.07-0.13-0.07-0.39-0.05-0.62c0.19-0.04,0.54-0.12,0.87-0.16c0.23-0.03,0.35,0.02,0.44,0.25
		c0.19,0.73,0.29,2.42,0.44,3.73c0.18,1.61,0.55,3.12,0.97,4.59c0.02,0.08,0.73,2,1.79,2.91c-0.29,0.38-0.7,0.96-1.01,1.5
		c-1.56,2.73-0.79,5.08-0.12,6.51c0.22,0.52,0.47,1.04,0.74,1.56c-0.5,1.92-1.37,5.75-1.65,7.12c-0.58,2.9-0.41,6.01-0.09,8.39
		c0.08,0.9,0.22,1.82,0.45,2.64c0.14,0.67,0.26,1.13,0.3,1.3c0.03,0.85,0.34,9.56,1.54,15.17c2.19,10.26,6.6,19.05,11.27,28.37
		c5.59,11.15,11.37,22.67,13.95,37.91c1.94,11.45-2.05,27.97-2.09,28.14l-0.17,0.7l1.18,0.01c-0.04,0.01-0.08,0.01-0.12,0.02
		c0,0,20.08,0.11,38.81,0.21l29.87,0.18h0c0.03,0,0.05-0.01,0.08-0.02c0.83,0,1.4,0.01,1.64,0.01c0,0-5.83-14.72-3.94-19.25
		c0.75-1.8,7.92-1.72,6.54-4.26c-1.52-2.8-15.26-19.71-20.48-29.69c-0.15-0.28-12.85-25.82-22.42-37.03
		c-3.41-3.99-11.74-16.22-14.32-21.29c-1.19-1.85-0.18-2.18,0.61-2.46c0.74-0.27,4.45-2.23,4.78-3.08c0.33-0.86-0.68-2.61-0.78-3.51
		c-0.22-2.06,2.31-2.87,3.66-1.67c1.89,1.66,4.57,4.37,8.42,5.5c3.31,0.98,11.56,1.97,17.02,0.68c2.59-0.61,5.18-2.21,5.76-2.73
		c1.32-1.18,1.6-2.35,0.7-3.39c-0.22-0.25-3.36,1.54-4.69,0.47c-2.18-1.77-0.11-3.51,0.08-3.64c1.47-0.92,3.53-0.85,6.11-2.12
		c2.77-1.37,4.02-3,4.38-3.53c1.11-1.64,1.08-2.16,1.39-2.41c0.48-0.39,2.01,0.33,2.35-0.8c0.2-0.67,0.13-1.74-0.68-2.73
		c-0.69-0.85-1.33-0.83-1.67-1.79c-0.57-1.65,1.2-3.33,1.89-4.12c0.62-0.72,0.73-1.48,0.46-1.93v0h0c0-0.03-0.15-0.86-5.01-2.88
		c-2.52-1.05-7.43-3.22-12.91-4.55c-5.03-1.23-10.53-1.69-14.19-1.63c-5.85,0.09-9.3,1.23-9.3,1.23l-1.47-3.12
		c0,0,5.65-5.72,6.62-7.27c0.98-1.55,1.2-2.06,1.2-2.06s3.84-2.92,5.38-3.72c1.55-0.8,6.01-3.21,7.96-5.33
		c1.95-2.12,5.67-6.18,7.04-7.56c1.37-1.37,2.92-2.69,3.44-3.04c0.52-0.34,1.4-1.37,1.92-1.67c1.28-0.75,3.67-0.97,5.44-1.95
		c1.78-0.97,3.6-1.39,4.21-1.55c1.52-0.39,5.54-1.57,7.51-2.24c1.78-0.61,2.53-0.37,2.58-1.08
		C170.13,76.57,165.88,77.94,165.3,78.06 M99.76,148.06c0.22-0.37,0.86-1.6,0.97-2.66c0.12-1.14,0.08-2.08,0-2.93
		s-0.14-2.04-0.19-2.48c-0.19-1.59,1.15-4.42,1.55-4.74c0.23,0.49,0.64,5.22,0.62,5.92c-0.24,8.06,3.22,13.6,3.22,13.6
		C102.24,149.72,99.84,148.27,99.76,148.06"/>
</g>
<g>
	<defs>
		<path id="SVGID_00000107582001850180025030000013647947175739544480_" d="M159.97,315.46h6.33v-7.05h-6.33V315.46z M30.56,284.91
			v30.56h7.01v-24.65h4.08v24.65h7.01v-30.56H30.56z M79.59,301.95h1.61c0.54,0,0.97,0.12,1.3,0.36c0.33,0.24,0.57,0.55,0.74,0.93
			c0.17,0.38,0.28,0.82,0.34,1.32c0.06,0.5,0.09,1.01,0.09,1.55c0,0.77-0.03,1.41-0.09,1.93c-0.06,0.52-0.17,0.95-0.34,1.27
			c-0.17,0.33-0.43,0.57-0.76,0.72c-0.34,0.16-0.81,0.23-1.4,0.23h-1.49V301.95z M72.58,284.91v30.56h9.99
			c1.56,0,2.86-0.26,3.91-0.76c1.05-0.51,1.88-1.19,2.51-2.04c0.62-0.85,1.06-1.85,1.32-3c0.25-1.15,0.38-2.36,0.38-3.63
			c0-2.86-0.85-5.09-2.55-6.67c-1.7-1.59-4.11-2.38-7.22-2.38h-1.32v-6.16h9.39v-5.91H72.58z M93.52,284.91v30.56h15.98v-5.91h-8.97
			v-6.8h7.57v-5.91h-7.57v-6.04h8.63v-5.91H93.52z M121.13,305.73c0.21-1.53,0.39-3.17,0.53-4.93c0.14-1.76,0.25-3.56,0.34-5.42
			c0.08-1.86,0.16-3.62,0.21-5.29h3.4v19.47h-5.31C120.64,308.54,120.92,307.26,121.13,305.73 M115.75,284.91
			c-0.06,2.04-0.1,4.22-0.13,6.54c-0.03,2.32-0.11,4.61-0.23,6.86c-0.13,2.25-0.34,4.36-0.64,6.33c-0.3,1.97-0.73,3.6-1.29,4.91
			h-1.74v11.52h5.91v-5.61h11.07v5.61h5.89v-11.52h-1.96v-24.65H115.75z M146.54,289.67h0.08l1.66,14.92h-3.53L146.54,289.67z
			 M141.9,284.91l-5.65,30.56h7.05l0.72-5.44h4.93l0.64,5.44h7.4l-5.74-30.56H141.9z M159.97,284.91v11.94l1.45,9.77h3.44l1.45-9.77
			v-11.94H159.97z M59.43,310.22c-0.28-0.21-0.49-0.47-0.62-0.77c-0.13-0.3-0.2-0.61-0.21-0.94c-0.02-0.32-0.02-0.59-0.02-0.79
			v-15.09c0-0.26,0.01-0.55,0.02-0.87c0.01-0.32,0.08-0.63,0.21-0.91c0.13-0.28,0.33-0.52,0.62-0.72c0.28-0.2,0.68-0.3,1.19-0.3
			c0.51,0,0.9,0.1,1.17,0.3c0.27,0.2,0.47,0.44,0.59,0.72c0.13,0.28,0.21,0.59,0.23,0.91c0.03,0.33,0.04,0.62,0.04,0.87v15.09
			c0,0.2-0.01,0.46-0.04,0.79c-0.03,0.33-0.11,0.64-0.23,0.94c-0.13,0.3-0.33,0.55-0.59,0.77c-0.27,0.21-0.66,0.32-1.17,0.32
			C60.11,310.53,59.72,310.43,59.43,310.22 M57.01,284.95c-1.11,0.37-2.06,0.91-2.87,1.64c-0.81,0.72-1.44,1.64-1.89,2.76
			c-0.45,1.12-0.68,2.42-0.68,3.89v13.9c0,2.75,0.81,4.91,2.42,6.48c1.61,1.57,3.83,2.36,6.63,2.36c2.83,0,5.05-0.79,6.65-2.36
			c1.6-1.57,2.4-3.73,2.4-6.48v-13.9c0-1.47-0.23-2.77-0.68-3.89c-0.45-1.12-1.08-2.04-1.89-2.76c-0.81-0.72-1.76-1.27-2.87-1.64
			c-1.1-0.37-2.31-0.55-3.61-0.55C59.32,284.4,58.11,284.58,57.01,284.95 M45.21,260.09c-0.63-0.49-0.94-1.56-0.94-3.23v-9.82
			c0-1.66,0.31-2.74,0.94-3.23c0.63-0.49,1.4-0.73,2.31-0.73c0.86,0,1.61,0.25,2.27,0.73c0.65,0.49,0.99,1.56,0.99,3.23v9.82
			c0,1.67-0.33,2.74-0.99,3.23c-0.66,0.49-1.42,0.73-2.27,0.73C46.61,260.82,45.84,260.58,45.21,260.09 M45.21,231.9
			c-0.63-0.49-0.94-1.56-0.94-3.21v-5.65c0-1.66,0.31-2.73,0.94-3.21c0.63-0.49,1.4-0.73,2.31-0.73c0.86,0,1.61,0.24,2.27,0.73
			c0.65,0.49,0.99,1.56,0.99,3.21v5.65c0,1.66-0.33,2.73-0.99,3.21c-0.66,0.49-1.42,0.73-2.27,0.73
			C46.61,232.62,45.84,232.38,45.21,231.9 M37.97,210.43c-2.26,1.2-3.9,2.63-4.93,4.28c-1.03,1.66-1.63,3.36-1.8,5.1
			c-0.17,1.74-0.26,3.16-0.26,4.24v4.2c0,0.74,0.1,1.56,0.3,2.44c0.2,0.89,0.56,1.77,1.07,2.66c0.51,0.88,1.18,1.7,2.01,2.44
			c0.83,0.74,1.87,1.37,3.13,1.89c-1.71,0.69-3.04,1.54-3.99,2.57s-1.63,2.14-2.06,3.34c-0.43,1.2-0.68,2.42-0.77,3.64
			c-0.09,1.23-0.13,2.38-0.13,3.47v5.14c0,4.74,1.44,8.5,4.33,11.27c2.88,2.77,7.1,4.16,12.64,4.16c5.54,0,9.75-1.38,12.64-4.16
			c2.88-2.77,4.33-6.53,4.33-11.27v-5.14c0-1.54-0.06-2.97-0.17-4.28c-0.11-1.31-0.42-2.53-0.9-3.64c-0.49-1.12-1.2-2.09-2.14-2.92
			c-0.94-0.83-2.27-1.55-3.98-2.18c1.26-0.52,2.33-1.16,3.21-1.93c0.88-0.77,1.59-1.59,2.1-2.44c0.51-0.86,0.88-1.73,1.11-2.61
			c0.23-0.89,0.34-1.7,0.34-2.44v-4.2c0-1.08-0.09-2.5-0.26-4.24c-0.17-1.74-0.77-3.44-1.8-5.1c-1.03-1.66-2.67-3.09-4.93-4.28
			c-2.26-1.2-5.44-1.8-9.56-1.8C43.41,208.63,40.23,209.23,37.97,210.43 M90.25,119.35c-2.54,5.55-6.96,2.7-10.96,6.05
			c-2.59,2.17-2.97,4.92-2.97,4.92s1.11-0.29,2.09-0.5c-0.47,0.42-4.02,7.34-4.12,7.51c-0.1,0.17,4.95-5.46,14.36-11.58
			c3.38-2.2,6-3.15,6-3.15c-1.96-1.96-2.77-5.12-2.77-5.12S90.81,118.12,90.25,119.35 M81.24,101.53c0.39-0.43,1.12-0.69,1.35-0.73
			c0.23-0.04,0.27,0.03,0.27,0.03c-0.02,0.08-0.05,0.15-0.07,0.23c0,0-0.83,0.31-1.16,0.65c-0.34,0.34-0.54,0.57-0.6,0.75
			c-0.05,0.18-0.1,0.28-0.1,0.28S80.85,101.97,81.24,101.53 M83.8,99.11c-2.68-0.59-3.53,1.2-3.53,1.2c1.08-0.4,1.99-0.89,2.92-0.19
			c-0.62,0.06-1.86,0.26-2.52,1.04c-0.88,1.04-0.55,2.34-0.51,3.18c0.01,0.14,0.46-0.59,0.93-0.72c-0.09-0.31-0.08-0.43,0.04-0.78
			c0.16-0.56,0.64-0.96,1.08-1.09c-0.05,0.67,0.25,0.56,0.9,0.66c-0.05,0.07-0.1,0.13-0.16,0.19c-0.08,0-0.17,0-0.25,0
			c-0.17,0-0.33,0-0.49,0.04c-0.22,0.05-0.47,0.1-0.67,0.38c0.6-0.09,1,0.04,0.98,0.48c1.43-0.94,2.11-1.69,1.75-3.27
			c0.43-0.6,0.69-1.04,0.74-1.79C84.58,98.88,84.44,99.16,83.8,99.11 M124.17,225.11c0,0,1.81,2.62,2.9,4.62
			c1.61,2.97,2.39,3.85,5.08,9.83c1.46,3.25,3.37,6.4,4.83,8.28c0.46,0.59,0.86,1.05,1.16,1.41l1.43,1.48l-3.35,0.89
			c-0.11,0.04-0.23,0.08-0.35,0.12c-2.43,0.8-2.35,2.3-2.3,3.7c0.05,1.35,0.46,3.23-3.03,8.91
			C131.82,242.59,126.86,232.78,124.17,225.11 M83.59,260.09c-0.63-0.48-0.94-1.56-0.94-3.22v-33.83c0-1.66,0.31-2.73,0.94-3.22
			c0.63-0.49,1.4-0.73,2.31-0.73c0.86,0,1.61,0.24,2.27,0.73c0.66,0.49,0.99,1.56,0.99,3.22v33.83c0,1.66-0.33,2.73-0.99,3.22
			c-0.66,0.49-1.41,0.73-2.27,0.73C84.99,260.82,84.22,260.58,83.59,260.09 M144.88,244.73c-0.79-2.99-2.19-7.57-4.25-11.99
			c-3.25-6.98-2.88-6.55-4.31-9.83c-0.24-0.55-1.87-4.52-1.54-4.01c2.21,3.41,4.93,8.08,7.82,13.29c1.02,1.84,3.7,6.42,5.19,9.37
			c0.59,1.16,3.24,1.21,3.57,1.16c5.02-0.69,6.7-0.87,10.56,1.06c0,0-0.36-0.05-0.86-0.1c-0.65-0.07-1.52-0.13-2.13-0.08
			c-2.63,0.2-3.23,0.02-7.14,1.75c-0.56,0.25-1.64,0.73-2.73,1.23c-0.47,0.21-0.97,0.32-1.45,0.32
			C146.39,246.89,145.27,246.2,144.88,244.73 M82.26,203.59c-4.63-9.24-9.01-17.98-11.17-28.09c-0.78-3.68-1.18-8.72-1.37-11.93
			c-0.04-2.64-0.08-6,0.8-8.8c0.26-0.83,0.98-2.57,1.79-4c0.82-1.43,1.83-2.33,2.4-2.9c0.61-0.61,3.31-2.74,8.08-3.17
			c4.9-0.44,7.72,1.22,9.19,1.74c1.43,0.5,7.32,3.56,12.4,13.28c1.21,2.31,1.78,5.79,2.61,9.63c-9.01-9.93-16.98-16.15-17.28-15.68
			c-0.34,0.52,9.23,10.46,9.97,11.39c0.43,0.54,6.44,6.71,10.59,14.47c0.01,0.02,0.02,0.03,0.02,0.05c0.2,0.4,0.41,0.79,0.63,1.18
			c3.4,5.93,6.01,11.61,8,16.96c-2.39-4.01-5.32-7.67-8.85-10.48c-12.25-9.78-17.24-13.2-21.38-18.92c-2.39-3.3-3.36-6.37-3.36-6.37
			c-0.15,2.69,0.69,6.1,2.97,10.31c3.47,6.41,9.87,9.92,16.15,17.7c5.84,7.23,6.12,8.07,9.3,13.62c1.14,1.98,1.86,4.95,3.12,4.95
			c0.72,0,0.32-6.42,0.86-6.29c0.31,0.07,0.52,0.52,0.64,0.77c0.67,1.38,0.98,2.97,1.3,4.46c0.48,2.24,0.85,4.5,1.18,6.77
			c0.35,2.38,0.65,4.78,0.89,7.18c0.03,0.29,0.06,0.58,0.08,0.87c0.02,0.23-0.02,0.63,0.07,0.84c-2.87-6.2-5.96-11.92-7.57-14.6
			c-3.16-5.27-9.46-12.57-10.59-13.93c-4.24-5.07-11.19-10.15-15.68-14.42c-3.23-3.07,1.09,3.12,3.15,5.32
			c2.9,3.11,9.58,9.35,15.29,18.15c1.62,2.49,1.53,3.41-0.77,0.8c-3.99-4.54-14.63-12.05-11.66-8.77c0,0,1.87,1.54,3.39,3.35
			c13.4,15.93,14.14,34.39,14.14,40.54c0.06,10.02-1.51,23.73-8.45,28.19c-3.33,2.14-7.85,2.04-8.67,2
			c1.55-0.66,2.89-1.53,4.03-2.62c2.88-2.77,4.33-6.53,4.33-11.27v-31.79c0-4.74-1.44-8.5-4.33-11.27
			c-2.89-2.77-7.1-4.15-12.64-4.15c-0.38,0-0.75,0.02-1.12,0.04C83.95,206.96,83.11,205.27,82.26,203.59 M99.76,148.06
			c0.22-0.37,0.86-1.6,0.97-2.66c0.12-1.14,0.08-2.08,0-2.94c-0.08-0.86-0.14-2.03-0.19-2.48c-0.18-1.59,1.15-4.42,1.55-4.74
			c0.23,0.49,0.64,5.22,0.62,5.92c-0.24,8.06,3.22,13.6,3.22,13.6C102.24,149.72,99.84,148.27,99.76,148.06 M84.39,134.02
			c3.89-4.04,6.67-3.95,6.67-3.95s-1.93,3.1-2.4,5.17c-0.42,1.81-0.06,3.17,1.82,3.8c2.15,0.73,2.56,1.7,2.56,1.7
			s-10.09-1.39-12.89,0.24c0,0,3.91,0.8,7.04,2.89c-0.23-0.04-2.09-0.67-5.28-0.24c-3.07,0.42-5.11,1.45-6.29,2.21
			c-0.07,0.04-0.13,0.07-0.18,0.07C74.87,145.92,76.15,142.59,84.39,134.02 M136.93,119.32c-0.42-0.3-1.03-0.56-1.76-0.77
			c3.32,0.39,6.35,0.95,8.83,1.59c2.41,0.62,7.49,2.55,12.52,4.98c0.32,0.16,1.11,0.58,1.65,0.87c-1.21,0.14-2.65,0.99-2.65,0.99
			s-7.98-4.31-14.96-5.07c-5.77-0.63-13.2-0.12-13.2-0.12S130.82,120.23,136.93,119.32 M61.05,122.64l0.11-1.65l0.76-0.15l0.17-2.06
			c0.25-0.1,0.62-0.24,0.8-0.28c1.1-0.3,1.7,0.25,1.7,0.25l-0.13,1.93l0.23,0.15c0,0-0.08,1.96-0.15,2.11
			c0,0.01-0.05,0.01-0.12,0.01C63.81,122.96,61.05,122.64,61.05,122.64 M60.76,117.49c-0.06-0.7,0.25-0.89,0.25-0.89
			s0.41-0.44,1.34-0.4c0.62,0.03,0.7,0.31,0.7,0.56c0,0.35-0.35,0.71-0.81,0.79c-0.44,0.07-1.18,0.31-1.2,0.53
			C60.94,117.95,60.79,117.74,60.76,117.49 M60.44,115.94c-0.32-1.08,0.97-1.5,1.23-1.52c0.21-0.02,0.54-0.1,0.71,0.22
			c0.07,0.14,0.22,0.7-0.43,1.01c-0.63,0.3-0.83,0.35-1.05,0.62c-0.05,0.06-0.14,0.2-0.13,0.24
			C60.63,116.41,60.54,116.29,60.44,115.94 M60.07,114c-0.26-1.03,0.98-1.33,1.3-1.36c0.22-0.02,0.53,0.01,0.72,0.27
			c0.08,0.11,0.14,0.34,0.02,0.56c-0.14,0.24-0.4,0.17-0.67,0.27c-0.53,0.19-0.89,0.53-1.07,0.72
			C60.23,114.33,60.09,114.09,60.07,114 M77.94,99.38c0.59-0.6,1.88-0.96,1.88-0.96s0.06-0.62,0.56-0.85
			c0.37-0.17,0.9-0.31,0.9-0.31s0.04-0.79,0.5-1.14c0.46-0.35,0.72-0.42,1.09-0.5c0.99-1.07,2.11-2.61,3.66-2.75
			c1.17-0.11,2.35-0.26,2.89-0.36c0.14-0.03,1.23-0.18,1.37,0.12c-0.94-0.01-2.1,0.05-3.19,0.43c-0.9,0.32-0.93,0.66-1.18,0.91
			c-0.25,0.25-0.78,0.53-1.03,0.63c-0.25,0.09-0.53,0.25-0.66,0.47c-0.12,0.22-0.06,0.34-0.37,0.5c-0.31,0.16-0.72,0.89-0.72,0.89
			s1.62-0.46,2.5-0.43c1.19,0.03,1.91,0.68,1.87,1.66c-0.02,0.53-0.66,1.37-2.15,1.18c0,0-0.19,0.65-0.04,1.09
			c0.14,0.4,0.42,1.39,0.56,1.93c0.02,0.1,0.05,0.2,0.08,0.3c0.01,0.04,0.01,0.06,0.01,0.06s0,0.01,0,0.01
			c0.05,0.16,0.1,0.32,0.15,0.45c0.04,0.13-0.07,0.06-0.25-0.02c-0.24-0.1-0.61-0.2-0.96,0.16l-0.61,0.46
			c-0.3,0.27-0.83,0.68-0.73,0.89c0.1,0.21,0.23,0.31,0.52,0.35c0.27,0.04,1.74,0.03,2.17,0c0.11,0.01,0.21,0.01,0.31,0.02
			c0,0,0,0.01,0,0.01c-0.01,0.01,0.05,0.26,0.12,0.62c-0.53-0.3-1.52-0.31-1.55-0.29c-0.28-0.01-0.53,0.09-0.8,0.23
			c-0.45,0.23-0.96,0.95-1.12,1.67c-0.3,1.36-0.01,1.81,1.54,1.73c0,0,0.01,0.01,0.01,0.01c0.72,0.03,1.08,0,1.63,0
			c0.05,0,0.1-0.01,0.15-0.01c-0.35,0.5-0.78,0.74-0.78,0.74s-0.35,0.01-0.49,0.02c-0.38,0.02-0.67,0.01-0.89,0.01
			c-0.35-0.01-0.51-0.03-0.55,0.09c-0.3,0.89,0.13,0.78,0.59,0.67c0.32-0.08,0.66-0.15,0.78,0.11c0.12,0.28-0.07,0.91-0.31,1.29
			c-0.11,0.17-0.52,0.14-0.92,0.1c-0.35-0.03-0.69-0.06-0.84,0.04c-0.74,0.47-0.37,0.66,0.82,1.34c0.84,0.48,3.16,1.39,3.66,1.74
			c0.5,0.35,3.04,1.66,3.29,1.6c0.8-0.21,2.98-2.33,3.04-2.39c1.42-1.43,5.22-3.77,6.39-4.33c0.95-0.46,3.74-1.91,5.99-3.16
			c-0.46,0.84-0.94,2.29-1.15,4.78c-0.17,2.27-0.29,4.23-0.98,3.45c-1.71-1.95-1.61-4.22-1.94-3.65c-0.86,1.52-0.97,2.33-0.75,3.54
			c0.39,2.21,2.01,2.89,1.26,2.9c-2.76,0.03-3.62-0.58-5.19-2.22c-1-1.05-2.83-0.56-2.83-0.56s1.55,1.38,3.6,3.13
			c2.62,2.24,7.13,2.83,10.11,3.33c5.03,0.84,6.52,2.64,6.52,2.64s-12.86-0.86-13.94-1.74l0.94,1.23
			c-5.26-0.15-10.05-6.39-10.05-6.39s0.58,2.26,1.55,3.49c1.36,1.74,3.1,2.9,5.21,4.12c4.32,2.5,13.14,3.08,17.91,2.77
			c1.86-0.12,3.89-0.25,5.23-0.28c5.16-0.11,6.39,1.11,6.39,1.11s-11.04-0.31-16.35,3.38c-0.62,0.43,2.43-0.18,4.74-0.55
			c5.39-0.87,11.84,0.36,16.92,2.33c3.43,1.33,6.06,1.09,9.43,0.86c2-0.14,4.26-0.28,7.09-0.09c6.76,0.45,6.51,3.47,6.51,3.47
			s-2.88-2.14-7.1,0.38c-2.57,1.53-5.3,3.89-5.3,3.89s-1.14-0.97-8.74-2.37c-4.83-0.89-25.42-2.61-39.23-14.94
			c-0.29-0.26-0.55-0.5-0.79-0.72c-3.48,1.32-7.26,4.74-10.59,7.6c-2.98,2.57-5.52,5.94-8.52,8.64c0,0-4.63,4.01-5.99,6.52
			c-0.32,0.58-1.54,3.02-2.26,5.94c0-1.29,0.1-2.62,0.36-3.9c0.28-1.4,0.56-2.63,0.81-3.69c0.3-1.32,0.67-2.75,0.99-3.95
			c0.8-1.59,2.82-5.65,2.47-5.69c-0.71-0.09-1.86-0.17-2.91,0.12c-0.47,0.13-0.86,0.28-1.18,0.43c0.08-0.65,0.29-1.34,0.71-2.07
			c0.47-0.82,1.66-2.44,1.66-2.44s-1.76-1.05-2.36-3.04c-0.54-1.79-0.79-4.1-0.98-5.79c-0.15-1.42-0.24-2.11-0.41-2.45
			c-0.29-0.58-0.68-1.09-1.55-0.96c-0.08,0.01-0.18,0.03-0.27,0.04c0.09-0.12,0.17-0.24,0.17-0.33c0.02-0.69-0.78-1.15-0.85-1.49
			c-0.09-0.41-0.06-1.23,0.05-1.68c0.37-1.5-1.31-1.1-2.04-2.38c-0.69-1.22-0.54-2.41-1.78-1.73c-0.47,0.26-1.31,0.71-1.66,0.96
			c-0.34-0.92,0.02-1.24,0.74-1.79l0,0l0,0h0c0.15-0.1,0.33-0.21,0.44-0.27c0.98-0.55,2.44-0.73,3.04-0.61
			c0.95,0.19,1.54,1.4,1.52,2.04c-0.02,0.63,0.02,1.44,0.32,2.13c0.3,0.68,0.33,1.4,0.41,1.78c0.08,0.38,0.41,0.53,0.41,0.53
			c0.89-1.26,1.51-1.87,2.59-2.1c0.6,0.04,1.09-0.09,2.34,1.71c0.24,0.35,1.45,2.02,2.31,3.45c0.86,1.42,2.04,4.36,2.04,4.36
			l5.26-2.49c0,0-0.6-4.88-0.62-6.03c-0.05-2.99-0.41-4.37-0.41-4.37s-0.67,0.17-1-0.04c-0.15-0.09-0.49-0.21-0.64-0.94
			c-0.38-1.81,0.49-2.66,0.49-2.66c-0.52-0.45-0.79-1.42-0.61-2.66c0.13-0.89-0.49-0.27-0.86,0.5c-0.13-0.18-0.12-0.49,0.04-0.88
			c0.67-1.67,1.64-3.13,2.21-4.85c0,0-0.35,0.08-0.68,0.22c-0.32,0.14-0.74,0.57-1.14,1.15c-0.27,0.4-0.92,0.87-1.28,1.39
			C76.69,101.82,76.69,100.63,77.94,99.38 M160.42,76.75c0,0,1.76-0.58,2.66-0.87c2.3-0.74,2.48-0.74,2.57-0.5
			c0.11,0.27-0.47,0.51-0.78,0.63c-0.76,0.29-4.61,1.46-5.1,1.62C160.05,77.31,160.14,77.08,160.42,76.75 M107.9,110.67
			c-0.33-2.16-0.21-3.96-0.1-4.85c0.38-0.22,0.74-0.43,1.04-0.61c2.21-1.34,3.64-2.26,5.84-3.71c1.58-1.04,3.5-2.61,5.73-4.43
			c0.96-0.78,1.95-1.6,2.98-2.42c3.3-2.63,7.44-4.82,7.51-4.86c0.93-0.57,2.22-1.36,3.68-2.26c1.94-1.2,4.19-2.58,6.29-3.86
			c3.22-1.94,5.73-4.08,5.84-4.17l0.15-0.2c0.35-0.79,0.95-1.71,1.21-1.97c0.59-0.62,2.01-1.31,2.81-1.66l0.44-0.19
			c0.92-0.39,2.06-0.87,2.59-1.33c0.54-0.47,2.27-1.94,2.65-2.25c0.49-0.4,1.24-0.85,1.46-0.75c0.01,0.01,0.32,0.16-0.05,0.52
			c-0.02,0.01-1.64,1.41-2.18,1.8c-0.26,0.19-0.49,0.41-0.69,0.63c-0.21,0.19-0.42,0.38-0.55,0.55c-0.93,1.17-1.53,1.43-1.43,1.49
			c0.82,0.57,1.93,1.17,1.93,1.17c0.81,0.52,1.71,0.42,2.34,0.21c-0.73,0.79-1.84,1.36-2.49,1.44c-1.06,0.15-1.62,0.37-2.21,0.68
			c-1.63,0.84-2.89,1.62-3.29,1.68c-2.08,0.29-2.06,1.11-3.72,2.63c-0.69,0.63-10.54,8.25-13.69,10.31
			c-3.15,2.06-8.99,6.82-9.62,7.22c-1.34,0.85-2.53,3.25-4.4,5.29c-2.85,3.11-6.3,6.03-6.6,6.35c-0.19,0.2-0.55,0.33-0.97,0.33
			C109.46,113.45,108.22,112.79,107.9,110.67 M56.66,107.29c0.27-0.12,7.29-2.08,7.29-2.08l13.21-71.77l1.35-1.76l-0.57,1.44
			L65,106.78l3.2-1.69l6.6,2.14l-0.86,2.58l-9.54-0.65l-7.63,0.37C56.74,109.11,56.67,107.79,56.66,107.29 M78.94,30.58l-0.03,0.02
			l0,0.02l-2.11,2.81l-13.39,71.25l-7.43,2.23l0.17,2.9l1.01,0.74l0.03,0.03l2.64,0.09c-0.24,0.13-0.58,0.37-0.62,0.79
			c-0.04,0.42-0.08,1.21,0.22,1.43c0.29,0.21,0.4,0.2,0.4,0.2s-0.38,0.56-0.16,1.15c0.22,0.59,0.51,0.81,0.51,0.81
			s-0.33,0.37-0.13,0.97c0.2,0.61,0.46,0.76,0.46,0.76s-0.3,0.89,0.06,1.34c0.37,0.46,1.05,0.66,1.05,0.66l-0.17,1.64l-0.87,0.18
			l-0.2,2.36l1.06,0.44l4.16,0.32l0.22-2.48c0,0-0.38-0.26-0.45-0.39c-0.07-0.13-0.07-0.39-0.05-0.62c0.19-0.04,0.54-0.12,0.87-0.16
			c0.23-0.03,0.35,0.02,0.44,0.25c0.19,0.73,0.29,2.43,0.43,3.73c0.18,1.6,0.55,3.12,0.97,4.59c0.02,0.08,0.73,2,1.79,2.91
			c-0.29,0.38-0.7,0.96-1.01,1.5c-1.56,2.73-0.79,5.08-0.12,6.51c0.22,0.52,0.47,1.04,0.74,1.56c-0.5,1.92-1.37,5.75-1.65,7.12
			c-0.58,2.9-0.41,6.01-0.09,8.39c0.08,0.9,0.22,1.82,0.45,2.64c0.14,0.67,0.26,1.13,0.3,1.3c0.03,0.85,0.35,9.56,1.54,15.17
			c2.19,10.26,6.6,19.05,11.26,28.37c0.77,1.53,1.54,3.07,2.3,4.63c-4.39,0.35-7.82,1.69-10.28,4.05
			c-2.89,2.77-4.33,6.53-4.33,11.27v31.79c0,4.74,1.44,8.5,4.33,11.27c2.88,2.77,7.1,4.16,12.64,4.16c2.71,0,5.1-0.34,7.17-1
			l-0.14,0.59l1.18,0.01c-0.04,0.01-0.08,0.01-0.12,0.02c0,0,20.08,0.11,38.81,0.21l29.87,0.18h0c0.03,0,0.05-0.01,0.08-0.02
			c0.83,0.01,1.4,0.01,1.64,0.01c0,0-5.83-14.72-3.94-19.25c0.75-1.8,7.92-1.72,6.54-4.26c-1.52-2.79-15.26-19.71-20.48-29.69
			c-0.15-0.28-12.85-25.82-22.42-37.03c-3.41-3.99-11.74-16.22-14.32-21.29c-1.19-1.85-0.18-2.18,0.61-2.46
			c0.74-0.27,4.46-2.23,4.78-3.08c0.33-0.86-0.68-2.61-0.77-3.51c-0.22-2.06,2.31-2.87,3.66-1.67c1.89,1.66,4.57,4.37,8.42,5.5
			c3.32,0.98,11.56,1.97,17.03,0.68c2.59-0.61,5.18-2.21,5.76-2.73c1.32-1.18,1.6-2.35,0.7-3.39c-0.09-0.1-0.69,0.15-1.45,0.4
			c-1.07,0.35-2.46,0.7-3.24,0.07c-2.19-1.76-0.11-3.51,0.08-3.63c1.47-0.92,3.53-0.85,6.11-2.12c2.77-1.36,4.02-3,4.38-3.53
			c1.11-1.64,1.08-2.15,1.39-2.41c0.18-0.15,0.51-0.14,0.86-0.13c0.6,0.02,1.27,0.03,1.49-0.68c0.2-0.67,0.13-1.74-0.68-2.74
			c-0.69-0.85-1.34-0.83-1.67-1.79c-0.57-1.65,1.2-3.33,1.89-4.12c0.62-0.71,0.73-1.48,0.46-1.93v0c0-0.03-0.15-0.86-5.01-2.88
			c-2.52-1.05-7.43-3.22-12.91-4.55c-5.03-1.23-10.53-1.69-14.19-1.63c-5.85,0.09-9.3,1.23-9.3,1.23l-1.47-3.12
			c0,0,5.65-5.72,6.62-7.27c0.98-1.55,1.2-2.06,1.2-2.06s3.84-2.92,5.38-3.72c1.55-0.8,6.01-3.21,7.96-5.33
			c1.95-2.12,5.67-6.19,7.05-7.56c1.37-1.37,2.92-2.69,3.43-3.04c0.52-0.34,1.4-1.37,1.92-1.68c1.28-0.75,3.67-0.97,5.44-1.94
			c1.77-0.97,3.6-1.39,4.21-1.55c1.52-0.39,5.54-1.57,7.51-2.24c1.78-0.61,2.53-0.37,2.58-1.08c0.1-1.48-4.14-0.11-4.73,0.01
			c0.54-0.29,1.03-0.54,1.22-0.64c0.74-0.37,1.39-0.69,1.73-0.88c1.07-0.59,1.38-0.74,1.51-1.17c0.11-0.35-0.08-0.72-0.48-0.9
			c-0.36-0.17-1.15,0.12-1.8,0.41c-0.54,0.24-0.98,0.48-0.98,0.46c-0.05-0.4-0.28-0.71-0.79-0.72c-0.61-0.01-1.38,0.23-2.49,0.61
			c-1.02,0.35-2.04,0.67-2.27,0.73c0.57-0.68,0.74-0.94,0.74-0.94s0.54-0.62,0.26-1.01c-0.08-0.1-0.27-0.17-0.5-0.09
			c-0.48,0.17-1.37,0.94-2.87,2.33c-0.19,0.17-0.27,0.32-0.56,0.51c-0.57,0.15-1.61,0.24-2.16,0.09c-0.44-0.12-0.73-0.28-0.92-0.44
			c0.02-0.03,0.62-1.35,1.53-2.01c0.58-0.42,2.18-1.8,2.32-1.94c0.55-0.58,0.47-1.03,0.42-1.34c-0.05-0.37-0.26-0.7-0.54-0.9
			c-0.97-0.67-2.64,0.65-2.83,0.8c-0.38,0.31-2.13,1.8-2.68,2.27c-0.4,0.34-1.53,0.83-2.29,1.14l-0.44,0.19
			c-0.94,0.41-2.13,1.01-3,1.77c-0.6,0.51-1.32,1.83-1.54,2.33c-0.49,0.41-2.8,2.3-5.59,3.98c-2.11,1.27-4.36,2.66-6.3,3.86
			c-1.45,0.9-2.74,1.69-3.64,2.24c-0.17,0.09-4.27,2.26-7.66,4.96c-1.03,0.82-2.04,1.64-2.99,2.43c-0.8,0.65-1.54,1.26-2.26,1.83
			c-2,1.64-6.52,4.53-7.02,4.89c-0.67,0.42-1.36,0.85-2.16,1.33c-2.14,1.3-6.65,3.65-7.9,4.26c-0.49,0.24-1.37,0.74-2.35,1.35
			c-0.03,0.02-0.07,0.04-0.1,0.05l-0.03,0.02c-0.25-0.27-0.51-0.65-0.54-0.88c-0.19-1.2,1.48-1.34,3.25-1.79
			c1.19-0.3,2.15-0.88,2.14-1.61c-0.01-0.68-0.4-0.57-0.53-1.06c-0.29-1.15,1.2-1.25,1.4-1.78c0.07-0.18,0.04-0.56-0.43-0.72
			c-0.47-0.16-0.7-0.12-1.35,0.06c-0.34,0.1-0.6-0.53-0.19-0.97c0.41-0.44,0.59-0.58,0.46-1.05c-0.18-0.66-0.59-0.76-0.84-0.61
			c-0.25,0.16-0.46,0.59-0.96,0.53s-0.72-0.37-1.98-0.37c-0.25,0-0.49,0.07-0.72,0.15c-0.44,0.15-0.87,0.29-1.35-0.12
			c-0.44-0.37-1.02-1.56-2.35-1.94c-1.01-0.29-1.5-0.84-1.5-0.84s1.24-0.39,1.63-0.78c0.72-0.73,0.67-0.92,0.79-1.43
			c0.05-0.21,0.25-1.82-0.64-1.7c-0.22,0.03-1,0.78-1.5,0.81c-0.5,0.03-0.58-0.13-0.5-0.41c0.17-0.6-0.01-0.95-0.43-1.25
			c-0.58-0.42-2.15-0.03-3.5,0.1c-1.34,0.13-2.37,0-3.61,0.8c-1.08,0.69-2.03,2.03-2.03,2.03s-0.95,0.06-1.54,0.93
			c-0.3,0.44-0.3,0.81-0.3,0.81s-0.89,0.03-1.31,0.8c-0.23,0.42-0.22,0.48-0.22,0.48s-1.71,0.47-2.3,1.52
			c-0.64,1.15-1.09,2.27-0.52,3.4c0.47,0.93,0.71,1.07,0.71,1.07s-0.39,0.91-0.16,1.84c0.26,1.05,0.72,1.39,0.79,1.48
			c-0.07,0.24-0.48,1.56,0.02,3.09c0.78,2.36,1.97,2.36,1.97,2.36s0.18,2.83,0.31,4.55c0.13,1.71,0.16,2.92,0.16,2.92
			c-0.03-0.01-3.08,1.55-3.08,1.55s-0.4-0.9-0.71-1.39c-1.17-1.88-2.8-3.46-3.48-4.41c-0.69-0.94-1.6-2.07-2.18-2.51
			c-0.13-0.14-0.36-0.35-0.77-0.62c-0.99-0.66-1.64-2.12-1.64-2.12l6.71-0.38l1-2.89l-1.18-0.96l-5.99-1.92
			c1.03-6.79,11.09-71.21,11.09-71.21l-1.02-2.94L78.94,30.58z"/>
	</defs>
	<clipPath id="SVGID_00000161603357565406272470000013027157582705978499_">
		<use xlink:href="#SVGID_00000107582001850180025030000013647947175739544480_"  style="overflow:visible;"/>
	</clipPath>
	
		<linearGradient id="SVGID_00000116930882360781973490000000728346250920713354_" gradientUnits="userSpaceOnUse" x1="3.377954e-06" y1="352.439" x2="1.0007" y2="352.439" gradientTransform="matrix(139.4676 0 0 -139.4676 30.5575 49329.6406)">
		<stop  offset="0" style="stop-color:#E96512"/>
		<stop  offset="0.5103" style="stop-color:#E4362C"/>
		<stop  offset="0.6624" style="stop-color:#DF332B"/>
		<stop  offset="0.8302" style="stop-color:#D22829"/>
		<stop  offset="1" style="stop-color:#BD1826"/>
	</linearGradient>
	
		<rect x="30.56" y="30.56" style="clip-path:url(#SVGID_00000161603357565406272470000013027157582705978499_);fill:url(#SVGID_00000116930882360781973490000000728346250920713354_);" width="139.57" height="290.52"/>
</g>
<g>
	<defs>
		<rect id="SVGID_00000021118280782784724470000014709932615534327991_" width="196.97" height="352.44"/>
	</defs>
	<clipPath id="SVGID_00000142873517183128959030000004689991965589730948_">
		<use xlink:href="#SVGID_00000021118280782784724470000014709932615534327991_"  style="overflow:visible;"/>
	</clipPath>
	<polygon style="clip-path:url(#SVGID_00000142873517183128959030000004689991965589730948_);" points="30.52,270.25 30.52,270.72 
		30.52,272.47 166.41,272.47 166.41,270.72 166.41,270.25 	"/>
	<polygon style="clip-path:url(#SVGID_00000142873517183128959030000004689991965589730948_);fill:#F6A316;" points="30.52,272.47 
		30.52,272.95 30.52,274.7 166.41,274.7 166.41,272.95 166.41,272.47 	"/>
	<polygon style="clip-path:url(#SVGID_00000142873517183128959030000004689991965589730948_);fill:#F6A316;" points="30.52,276.93 
		30.52,277.41 30.52,279.16 166.41,279.16 166.41,277.41 166.41,276.93 	"/>
	<polygon style="clip-path:url(#SVGID_00000142873517183128959030000004689991965589730948_);" points="30.52,274.7 30.52,275.18 
		30.52,276.93 166.41,276.93 166.41,275.18 166.41,274.7 	"/>
	<polygon style="clip-path:url(#SVGID_00000142873517183128959030000004689991965589730948_);" points="30.52,279.16 30.52,279.64 
		30.52,281.39 166.41,281.39 166.41,279.64 166.41,279.16 	"/>
</g>
</svg>
